# MagicaVoxel @ Ephtracy

# group
g BulletTile

# material
mtllib BulletTile.mtl
usemtl palette

# normals
vn -1 0 0
vn 1 0 0
vn 0 0 1
vn 0 0 -1
vn 0 -1 0
vn 0 1 0

# texcoords
vt 0.537109 0.5
vt 0.880859 0.5
vt 0.884766 0.5
vt 0.888672 0.5

# verts
v -25 0 25
v -25 0 -25
v -25 1 25
v -25 1 -25
v 25 0 25
v 25 0 -25
v 25 1 25
v 25 1 -25
v -25 0 25
v -25 1 25
v 25 0 25
v 25 1 25
v -25 0 -25
v -25 1 -25
v 25 0 -25
v 25 1 -25
v -25 0 25
v 25 0 25
v -23 0 23
v 23 0 23
v -22 0 22
v 22 0 22
v -21 0 21
v 21 0 21
v -21 0 -21
v 21 0 -21
v -22 0 -22
v 22 0 -22
v -23 0 -23
v 23 0 -23
v -25 0 -25
v 25 0 -25
v -25 1 25
v 25 1 25
v -23 1 23
v 23 1 23
v -22 1 22
v 22 1 22
v -21 1 21
v 21 1 21
v -21 1 -21
v 21 1 -21
v -22 1 -22
v 22 1 -22
v -23 1 -23
v 23 1 -23
v -25 1 -25
v 25 1 -25

# faces
f 3/2/1 2/2/1 1/2/1
f 4/2/1 2/2/1 3/2/1
f 5/2/2 6/2/2 7/2/2
f 7/2/2 6/2/2 8/2/2
f 11/2/3 10/2/3 9/2/3
f 12/2/3 10/2/3 11/2/3
f 13/2/4 14/2/4 15/2/4
f 15/2/4 14/2/4 16/2/4
f 19/2/5 18/2/5 17/2/5
f 20/2/5 18/2/5 19/2/5
f 21/3/5 20/3/5 19/3/5
f 22/3/5 20/3/5 21/3/5
f 23/4/5 22/4/5 21/4/5
f 24/4/5 22/4/5 23/4/5
f 25/4/5 23/4/5 21/4/5
f 25/1/5 24/1/5 23/1/5
f 26/4/5 22/4/5 24/4/5
f 26/1/5 24/1/5 25/1/5
f 27/3/5 21/3/5 19/3/5
f 27/4/5 25/4/5 21/4/5
f 27/4/5 26/4/5 25/4/5
f 28/4/5 22/4/5 26/4/5
f 28/4/5 26/4/5 27/4/5
f 28/3/5 20/3/5 22/3/5
f 29/2/5 19/2/5 17/2/5
f 29/3/5 27/3/5 19/3/5
f 29/3/5 28/3/5 27/3/5
f 30/3/5 20/3/5 28/3/5
f 30/3/5 28/3/5 29/3/5
f 30/2/5 18/2/5 20/2/5
f 31/2/5 29/2/5 17/2/5
f 31/2/5 30/2/5 29/2/5
f 32/2/5 18/2/5 30/2/5
f 32/2/5 30/2/5 31/2/5
f 33/2/6 34/2/6 35/2/6
f 35/2/6 34/2/6 36/2/6
f 35/3/6 36/3/6 37/3/6
f 37/3/6 36/3/6 38/3/6
f 37/4/6 38/4/6 39/4/6
f 39/4/6 38/4/6 40/4/6
f 37/4/6 39/4/6 41/4/6
f 39/1/6 40/1/6 41/1/6
f 40/4/6 38/4/6 42/4/6
f 41/1/6 40/1/6 42/1/6
f 35/3/6 37/3/6 43/3/6
f 37/4/6 41/4/6 43/4/6
f 41/4/6 42/4/6 43/4/6
f 42/4/6 38/4/6 44/4/6
f 43/4/6 42/4/6 44/4/6
f 38/3/6 36/3/6 44/3/6
f 33/2/6 35/2/6 45/2/6
f 35/3/6 43/3/6 45/3/6
f 43/3/6 44/3/6 45/3/6
f 44/3/6 36/3/6 46/3/6
f 45/3/6 44/3/6 46/3/6
f 36/2/6 34/2/6 46/2/6
f 33/2/6 45/2/6 47/2/6
f 45/2/6 46/2/6 47/2/6
f 46/2/6 34/2/6 48/2/6
f 47/2/6 46/2/6 48/2/6
